<svg width="763" height="483" viewBox="0 0 763 483" fill="none" xmlns="http://www.w3.org/2000/svg">
<path d="M753.788 140.731L755.981 144.034L754.112 145.405L755.333 148.073L753.613 149.643L755.421 151.076L753.688 153.108L755.869 154.691L757.951 153.195L762.774 156.76L756.193 162.181L758.35 163.702L755.944 167.429L758.113 168.8L755.296 176.303L748.528 177.337L747.78 178.77L751.918 181.824L751.457 183.307L754.087 186.186L751.893 188.492L753.726 198.176L755.732 200.981L735.08 203.922L733.933 203.698L733.335 199.124L729.496 204.745L721.669 204.932L718.74 197.366L712.496 196.132L710.19 193.527L707.523 193.203L701.628 194.662L700.93 200.557L696.58 201.878L694.299 205.019L691.594 202.688L691.183 206.128L689.201 207.312L695.009 209.568L695.707 211.076L699.721 210.715L704.743 214.18L709.554 212.784L711.935 213.569L713.879 216.249L714.303 220.112L713.119 221.695L718.229 225.833L715.612 230.17L711.935 231.691L713.667 235.505L712.87 238.147L705.616 242.996L704.482 245.314L697.963 245.027L696.592 247.894L695.446 245.389L691.544 245.227L693.065 249.003L692.118 252.692L690.248 253.303L693.227 255.858L695.77 263.885L693.564 267.923L689.987 268.047L690.709 273.095L688.416 274.865L689.65 277.856L692.193 277.408L693.152 280.299L692.267 284.076L698.449 283.241L699.746 286.381L696.979 286.83L696.829 288.849L693.065 291.155L694.112 294.121L698.848 296.465L691.058 299.331L690.734 300.503L691.632 301.512L693.489 300.378L698.1 304.516L695.246 305.675L691.731 304.067L691.532 305.625L689.899 305.887L688.055 304.092L684.104 305.077L681.81 303.407L680.988 305.476L677.062 305.052L676.102 302.821L674.332 310.262L672.238 310.274L669.122 314.051L666.655 313.552L664.872 318.251L660.236 322.862L656.098 324.682L652.945 328.384L646.85 328.833L648.533 321.741L653.194 317.528L654.154 314.462L656.347 314.076L659.102 306.523L662.641 305.924L659.887 303.133L658.341 300.154L659.152 298.484L655.936 293.411L658.591 283.428L654.789 271.849L655.774 270.765L654.727 267.138L655.076 266.639L650.39 254.462V252.966L650.203 249.29L653.555 248.579L655.363 245.301L656.497 245.488L655.226 247.009L656.322 248.006L657.918 244.354L663.9 243.033L669.284 242.36L674.993 238.234L680.826 229.423L677.909 225.011L678.308 222.044L679.941 217.196L684.004 213.569L684.191 210.515L682.072 206.502L682.633 205.243L677.66 204.121L675.915 198.164L677.236 189.826L673.746 188.592L675.491 185.912L678.246 186.623L677.585 188.978L679.392 189.203L685.662 181.201L681.91 177.786L685.637 175.268L688.105 175.517L688.803 172.888L689.226 172.04L688.616 171.143L691.669 167.616L698.724 166.319L704.756 174.657L709.941 168.363L709.804 165.92L716.646 162.929L717.494 155.987L722.28 156.024L726.38 153.532L729.608 153.768L731.166 149.867L735.765 146.776L738.433 147.748L738.582 150.341L743.829 151.737L743.493 153.906L744.677 154.354L748.154 146.826L743.58 143.548L744.129 142.289L745.313 141.267L747.195 143.087L748.827 142.364L747.07 144.296L750.161 145.094L753.364 140.22L753.788 140.731Z" fill="black"/>
<path d="M313.199 289.996L314.943 286.992L321.449 285.646L321.973 289.747L327.233 291.155L330.311 290.507L332.804 292.912L340.108 292.95L341.815 293.61L344.694 299.107L349.343 298.409L350.527 300.652L353.917 302.198L372.912 297.823L372.837 292.987L375.604 291.03L379.156 292.351L384.378 290.594L387.906 294.707L390.822 293.049L394.1 293.274L405.704 297.237L411.287 296.664L412.733 299.069L417.232 299.044L417.432 303.955L421.134 306.385L423.402 306.049L426.256 312.929L429.571 316.718L432.824 317.889L434.445 316.381L440.976 316.257L439.542 313.727L442.945 313.228V310.847L448.641 308.778L449.376 304.154L454.337 303.619L460.182 298.621L460.917 295.854L464.096 297.212L468.084 293.997L471.125 300.926L472.845 299.655L474.154 301.138L484.349 301.35L485.895 302.671L485.982 307.582L487.702 307.794L490.643 304.865L493.273 305.65L493.298 303.27L494.856 303.693L495.305 301.487L497.897 301.001L499.069 303.369L506.198 303.02L509.002 305.264L510.286 302.671L531.798 297.624L532.509 300.415L537.993 304.89L543.277 306.373L546.63 313.876L550.07 317.889L547.976 322.912L548.761 328.907L546.268 330.453L544.935 335.812L550.257 338.305L551.827 346.319L549.596 352.252L552.438 352.8L553.971 355.318L548.923 356.925L545.159 362.409L542.841 358.683L540.597 360.552L539.663 359.78L539.326 362.846L536.36 361.225L534.104 362.409L530.863 367.931L529.181 375.995L522.401 377.665L521.603 376.556L520.319 378.874L518.911 377.029L517.502 382.463L515.895 381.952L513.726 385.28L506.185 387.486L506.273 392.547L503.88 395.6L499.804 388.172L496.925 389.817L492.226 388.533L490.643 385.019L478.915 387.337L476.248 385.442L471.536 387.013L469.605 385.48L463.547 386.751L459.509 380.606L452.953 378.363L448.641 379.971L439.031 374.188L431.117 374.424L427.365 376.431L420.074 373.963L415.961 374.312L409.767 371.495L405.118 372.056L403.959 370.062L399.671 370.71L398.176 367.918L390.598 369.277L388.716 368.666L388.915 367.121L385.338 366.111L385.126 367.881L382.546 367.594L380.24 370.087L375.292 368.691L371.989 370.062L364.885 364.715L356.784 362.734L353.02 363.78L341.08 361.475L332.904 362.011L331.657 358.508L324.54 355.953L321.375 357.748L317.411 354.52L317.499 348.837L318.172 347.752L320.452 348.164L319.081 346.394L319.854 342.817L328.865 339.925L332.555 341.147L338.151 337.47L341.317 339.19L344.844 334.902L332.879 325.255L331.956 317.241L328.03 315.895L322.933 310.486L320.714 305.426L325.525 298.833L319.954 298.272L318.284 293.897L313.199 289.996Z" fill="black"/>
<path d="M550.868 5.77523L553.909 5.68799L554.283 8.08101L557.685 8.9036L560.701 7.85666L563.057 9.02824L562.434 10.9102L564.341 13.8018L563.481 16.6684L566.36 16.5687L569.85 14.0012L573.539 14.9983L575.259 8.75404L577.103 10.9601L584.021 10.7482L589.841 15.3348L592.895 16.2696L594.154 15.285L597.382 17.6157L598.728 21.1055L605.047 23.673L608.487 23.4362L616.239 29.8051L618.096 29.0324L622.346 30.4158L625.014 26.9136L631.034 26.5023L632.292 27.9979L631.345 29.1944L633.614 30.2663L634.611 29.1196L635.658 31.8616L636.867 30.877L637.589 32.3103L636.356 31.712L636.43 32.9335L638.96 32.2978L640.369 35.2393L641.304 33.9929L642.799 34.6659L642.126 37.383L646.401 41.3714L656.422 46.2197L674.644 46.9925L680.09 48.4881L681.075 46.1948L682.907 49.0739L684.852 48.862L690.373 43.3157L691.794 38.2056L693.776 37.221L698.773 38.3552L700.88 36.0992L706.189 40.8977L713.119 41.0348L714.802 44.3377L714.976 49.0365L719.251 47.5658L721.457 48.3884L722.504 50.8437L726.754 52.3767L730.07 50.7066L733.41 51.5043L734.644 49.7594L736.875 50.582L739.38 61.8865L738.508 64.8778L740.738 65.8125L740.277 72.6301L741.935 76.3692L741 79.9214L737.996 81.3048L738.47 83.7352L736.189 83.7976L736.364 85.4303L731.852 90.7273L732.625 97.9064L731.839 100.599L730.144 101.072L731.154 105.322L734.058 105.796L734.008 107.379L737.598 109.174L736.326 111.666L739.106 117.125L742.446 118.434L741.474 122.547L744.191 132.244L749.438 136.83L752.23 136.519L753.352 140.258L750.149 145.131L747.058 144.333L748.815 142.402L747.17 143.124L745.3 141.292L744.104 142.314L743.568 143.573L748.142 146.839L744.652 154.367L743.48 153.918L743.817 151.749L738.557 150.353L738.42 147.748L735.753 146.789L731.154 149.88L729.596 153.781L726.368 153.544L722.28 156.037L717.494 155.987L716.646 162.929L709.804 165.92L709.928 168.363L704.744 174.657L698.711 166.319L691.657 167.603L688.616 171.13L689.226 172.028L688.803 172.875L688.105 175.505L685.637 175.256L681.898 177.773L685.649 181.188L679.38 189.19L677.573 188.966L678.233 186.61L675.479 185.9L673.734 188.579L677.224 189.801L675.903 198.139L677.66 204.097L682.633 205.218L682.06 206.477L684.179 210.503L683.992 213.556L679.928 217.183L678.308 222.044L677.909 224.998L680.813 229.41L674.98 238.222L669.272 242.347L663.9 243.02L661.495 241.138L659.189 236.028L659.214 229.934L658.292 230.569L658.08 228.575L656.808 228.214L652.583 233.548L649.642 229.784L642.463 229.061L638.823 226.917L636.044 221.022L631.919 221.695L633.04 213.943L631.183 214.18L629.339 211.537L625.188 210.777L621.549 212.347L619.704 209.855L619.131 200.918L616.838 200.495L614.931 202.489L612.575 199.784L610.905 200.096L608.437 194.836L598.553 195.459L598.877 192.817L592.347 191.87L591.125 188.779L588.445 189.863L587.822 185.488L581.877 183.581L577.34 184.79L576.219 189.115L569.114 188.43L567.693 192.094H568.366L567.332 194.512L561.462 193.328L560.502 195.397L556.227 196.382L553.472 196.444L550.917 194.462L547.153 196.219L544.798 195.758L540.361 200.594L538.329 200.744L535.163 199.809L533.58 195.97L531.349 197.204L529.63 195.447L524.308 198.338L521.541 195.123L522.276 194.051L518.973 188.941L520.955 187.482L518.686 184.566L520.319 181.4L518.699 179.954L524.121 176.627L524.893 175.056L523.672 172.352L520.481 167.503L518.038 168.887L510.647 166.444L503.394 160.549L497.947 158.878L493.435 151.874L493.385 145.979L494.844 145.206L493.635 144.608L497.274 141.429L494.719 139.797L496.638 125.451L500.103 122.559L505.325 124.255L513.526 133.34L516.904 134.549L519.472 131.321L521.827 132.094L530.988 129.489L533.194 124.429L535.899 123.208L541.32 123.457L543.514 127.57L545.234 128.006L543.128 124.342L546.455 119.481L545.919 110.308L541.657 109.635L543.838 99.7759L539.114 99.913L541.881 97.3081L541.482 94.9151L535.313 89.7178L534.141 86.0161L539.688 82.3767L537.531 79.7718L531.873 78.6625L532.484 77.653L528.421 74.7614L524.968 75.1104L523.56 73.4901L521.266 75.4843L516.767 70.4739L517.714 70.9226L519.671 68.0809L518.799 60.6651L520.257 55.1561L528.346 48.1266L528.47 41.3215L535.55 41.1096L536.285 42.6427L543.015 44.4499L545.421 42.3809L542.766 39.614L544.287 32.6842L545.895 31.7494L544.586 27.088L545.857 26.8637L546.63 22.6261L545.284 10.9726L547.203 9.20273L547.016 5.68799L550.868 5.77523ZM681.673 114.807L680.153 115.717L675.815 117.624L672.525 121.999L670.768 122.098L668.3 119.356L667.477 118.895L666.567 123.756L665.209 124.591L666.767 124.84L667.141 127.944L665.259 132.48L666.817 134.836L668.773 135.011L667.889 135.883L669.048 137.802L670.656 137.715L669.11 139.473L673.983 138.064L678.146 140.133L679.717 137.516L690.448 140.133L690.136 137.566L698.188 134.313L703.746 137.591L704.581 136.718L704.233 134.113L702.026 133.814L701.74 131.434L700.431 130.947L701.466 118.97L699.01 118.758L697.614 117.25L698.1 115.331L696.443 114.471L694.947 114.371L694.399 116.938L691.171 114.495L690.996 112.676L690.834 112.102L689.401 110.171L687.045 110.52L686.97 110.756L686.21 110.482L684.203 111.168L684.739 112.925L684.453 115.119L682.272 115.754L681.673 114.807Z" fill="black"/>
<path d="M432.712 42.6801L435.33 43.0789L443.531 51.1927L448.205 51.953L451.283 56.7266L453.813 57.1005L453.153 60.3036L450.348 60.2912L448.915 62.3601L450.822 64.2671L452.579 63.9804L452.031 66.2986L454.711 67.2459L454.536 68.9783L457.478 68.2803L457.415 69.4145L459.422 69.8632L460.992 68.5919L466.95 69.3148L471.973 71.658L474.939 71.0722L481.233 75.4469L483.489 72.0693L486.617 72.4307L486.418 69.2774L490.718 69.9879L493.223 64.5413L492.077 61.8242L494.681 61.039L497.922 65.7128L502.135 66.0369L503.767 67.6198L508.74 63.9555L510.012 67.2833L512.417 66.7972L514.05 70.9974L516.755 70.4739L521.254 75.4843L523.547 73.4901L524.968 75.1104L528.421 74.7614L532.484 77.653L531.873 78.6626L537.531 79.7718L539.688 82.3767L534.141 86.0161L535.313 89.7178L541.482 94.9151L541.881 97.3081L539.114 99.9006L543.838 99.7759L541.657 109.635L545.919 110.308L546.468 119.481L543.14 124.342L545.246 128.006L543.526 127.57L541.333 123.457L535.911 123.208L533.207 124.429L531.001 129.489L521.84 132.094L519.472 131.321L516.904 134.549L513.526 133.353L505.325 124.267L500.103 122.559L496.638 125.451L494.706 139.809L497.261 141.442L493.61 144.62L494.819 145.218L493.373 145.991L493.423 151.886L497.922 158.891L503.381 160.574L510.622 166.469L518.013 168.912L520.456 167.541L523.634 172.377L524.856 175.094L524.083 176.664L518.662 179.992L520.282 181.438L518.649 184.603L520.917 187.52L518.936 188.978L522.239 194.088L521.503 195.173L517.004 192.755L515.097 196.22L512.293 197.79L508.99 197.615L505.899 199.984L500.365 200.769L499.667 205.143L496.389 205.231L491.316 209.281L487.814 209.119L487.303 211.6L479.04 216.012L473.394 215.164L470.34 211.114L471.038 209.531L452.941 214.429L453.352 206.938L448.79 202.04L439.779 201.429L435.579 198.301L433.946 198.189L432.999 200.083L425.807 199.722L421.495 204.483L421.607 206.041L419.414 206.876L417.494 212.759L417.332 219.389L421.508 220.386L423.502 223.926L422.542 226.02L423.975 228.775L419.713 235.704L420.299 237.262L406.601 235.642L399.958 232.314L396.879 229.634L395.783 226.419L395.87 221.67L398.624 219.626L400.319 214.354L399.671 212.534L397.49 212.584L396.468 210.889L402.525 200.17L391.906 196.731L392.754 191.558L394.524 189.489L399.783 191.533L401.902 190.075L400.818 187.707L397.041 188.916L394.736 186.971L387.183 188.268L376.788 183.021L377.698 179.169L375.193 174.097L376.24 173.174L376.078 165.285L379.007 163.34L383.83 166.868L384.989 161.396L381.175 159.801L377.922 156.261L376.414 158.305L362.941 162.343L363.24 158.878L360.386 159.552L355.637 157.071L353.082 151.326L346.053 154.379L341.641 152.547L337.877 158.392L334.387 158.193L332.542 154.367L324.204 146.278L323.356 141.641L324.329 138.924L326.958 139.547L328.342 136.082L333.14 132.929L335.396 127.794L344.096 126.635L350.403 119.481L366.418 113.935L373.709 114.259L381.562 109.323L389.177 102.044L391.981 93.6688L390.722 89.7427L393.838 81.4918L391.981 74.5371L393.153 73.6522L395.695 74.8487L398.712 71.9571L398.948 69.8134L405.404 74.2629L408.67 73.2907L413.419 76.0327L414.578 78.1515L421.121 81.093L422.766 78.4382L422.492 75.2351L423.714 73.6148L424.823 75.1229L427.989 72.1067L427.939 68.8786L430.232 66.1491L429.173 54.5704L431.653 53.5109L429.123 53.0373L427.39 50.9684L432.712 42.6801Z" fill="black"/>
<path d="M521.503 195.173L524.27 198.388L529.592 195.497L531.312 197.242L533.543 196.008L535.126 199.846L538.292 200.769L540.323 200.632L544.773 195.783L547.128 196.244L550.892 194.487L553.447 196.469L556.202 196.406L560.477 195.422L561.437 193.353L567.307 194.537L568.354 192.107H567.681L569.102 188.442L576.219 189.128L577.328 184.79L581.877 183.581L587.822 185.488L588.445 189.863L591.125 188.791L592.347 191.87L598.877 192.817L598.566 195.459L608.437 194.836L610.905 200.096L612.587 199.784L614.943 202.489L616.85 200.495L619.143 200.918L619.717 209.855L621.561 212.347L625.201 210.777L629.351 211.537L631.196 214.18L633.04 213.943L631.919 221.695L636.044 221.022L638.823 226.917L642.463 229.061L649.642 229.784L652.583 233.548L656.808 228.214L658.08 228.575L658.292 230.582L659.214 229.946L659.189 236.041L661.507 241.151L663.9 243.033L657.918 244.354L656.322 248.006L655.226 247.009L656.497 245.488L655.363 245.301L653.555 248.579L650.203 249.29L650.39 252.966V254.462L655.076 266.639L654.727 267.138L655.774 270.765L654.789 271.849L658.591 283.428L655.936 293.411L659.152 298.484L658.341 300.154L659.887 303.133L662.641 305.924L659.102 306.523L656.347 314.076L654.154 314.462L653.194 317.528L648.533 321.741L646.85 328.833L645.653 330.004L646.975 332.522L645.703 342.567L647.349 345.721L650.128 346.68L650.464 354.807L646.314 350.906L641.428 349.56L634.773 345.372L631.233 345.073L622.932 348.475L612.862 347.354L612.438 349.447L609.746 351.205L608.138 350.694L607.727 352.164L606.455 351.304L607.926 350.12L606.842 349.809L601.831 352.738L602.205 357.15L597.519 360.727L593.68 360.59L592.845 357.125L588.707 354.807L576.592 355.255L570.772 357.113L561.948 354.146L560.377 355.455L557.959 354.209L555.479 356.128L553.971 355.318L552.438 352.8L549.596 352.252L551.827 346.319L550.257 338.305L544.935 335.812L546.268 330.453L548.761 328.907L547.976 322.912L550.07 317.889L546.63 313.876L543.277 306.373L537.993 304.89L532.509 300.415L531.798 297.624L510.286 302.671L509.002 305.264L506.198 303.02L499.069 303.369L497.897 301.001L495.305 301.487L494.856 303.693L493.298 303.27L493.273 305.65L490.643 304.865L487.702 307.794L485.982 307.582L485.895 302.671L484.349 301.35L474.154 301.138L472.845 299.655L471.125 300.926L468.084 293.997L464.096 297.212L460.918 295.854L460.182 298.621L454.337 303.619L449.376 304.155L448.641 308.779L442.945 310.848V313.228L439.542 313.727L440.976 316.257L434.445 316.381L432.824 317.889L429.571 316.718L426.256 312.929L429.397 311.72L432.438 306.46L434.457 305.401L434.482 301.612L438.645 295.206L435.629 290.756L435.878 289.024L441.773 285.01L443.755 286.78L446.522 286.531L447.27 284.337L437.698 278.118L438.246 276.51L433.099 271.313L434.694 269.742L434.27 267.935L430.469 265.916L430.269 261.915L429.085 261.541L424.499 265.654L420.261 264.321L419.127 267.001L415.562 264.819L408.745 263.411L407.511 258.687L408.446 256.917L404.42 243.295L407.199 237.574L406.601 235.642L420.299 237.262L419.713 235.704L423.975 228.775L422.542 226.02L423.502 223.926L421.508 220.387L417.332 219.389L417.494 212.759L419.414 206.876L421.607 206.041L421.495 204.483L425.807 199.722L432.999 200.083L433.946 198.189L435.579 198.301L439.779 201.429L448.79 202.04L453.352 206.938L452.941 214.429L471.038 209.531L470.34 211.114L473.394 215.164L479.04 216.012L487.303 211.6L487.814 209.119L491.316 209.281L496.389 205.231L499.667 205.144L500.365 200.769L505.899 199.984L508.99 197.615L512.293 197.79L515.097 196.22L517.004 192.755L521.503 195.173Z" fill="black"/>
<path d="M334.387 158.193L337.877 158.392L341.641 152.547L346.053 154.379L353.082 151.325L355.637 157.071L360.386 159.551L363.24 158.878L362.941 162.343L376.414 158.305L377.922 156.261L381.175 159.801L384.989 161.396L383.83 166.868L379.007 163.34L376.078 165.285L376.24 173.174L375.193 174.096L377.698 179.169L376.788 183.02L387.183 188.268L394.736 186.971L397.041 188.916L400.818 187.707L401.902 190.075L399.783 191.533L394.524 189.489L392.754 191.558L391.906 196.73L402.525 200.17L396.468 210.889L397.49 212.584L399.671 212.534L400.319 214.354L398.624 219.626L395.87 221.67L395.783 226.419L396.879 229.634L399.958 232.314L406.601 235.642L407.199 237.574L404.42 243.295L408.446 256.917L407.511 258.687L408.745 263.411L415.562 264.819L419.127 267L420.261 264.321L424.499 265.654L429.085 261.541L430.269 261.915L430.469 265.916L434.27 267.935L434.694 269.742L433.099 271.313L438.246 276.51L437.698 278.118L447.27 284.337L446.522 286.531L443.755 286.78L441.773 285.01L435.878 289.024L435.629 290.756L438.645 295.206L434.482 301.612L434.457 305.401L432.438 306.46L429.397 311.72L426.256 312.929L423.402 306.049L421.134 306.385L417.432 303.955L417.232 299.044L412.733 299.069L411.287 296.664L405.704 297.237L394.1 293.274L390.822 293.049L387.906 294.707L384.378 290.594L379.156 292.351L375.604 291.03L372.837 292.987L372.912 297.823L353.917 302.198L350.527 300.652L349.343 298.409L344.694 299.107L341.815 293.61L340.108 292.95L332.804 292.912L330.311 290.507L327.233 291.155L321.973 289.747L321.449 285.646L314.943 286.992L313.199 289.996L310.955 287.416L305.658 285.334L303.577 286.132L297.856 281.994L290.153 284.088L288.421 282.63L285.081 284.337L283.946 288.849L280.27 289.46L279.385 291.28L277.515 291.043L274.698 294.271L272.268 294.794L271.009 292.725L267.058 291.255L262.135 293.012L256.751 276.385L259.53 269.194L256.215 264.906L259.58 260.469L263.095 262.389L265.488 260.445L269.277 260.806L270.86 259.26L272.268 260.893L273.913 259.896L275.06 260.731L278.126 256.381L285.916 259.398L289.468 259.098L292.783 256.93L295.463 257.553L298.23 254.587L296.348 250.698L299.015 247.345L304.648 246.398L306.169 247.52L310.693 243.893L312.201 240.715L311.778 236.627L314.881 236.838L318.271 234.969L311.503 224.774L315.018 220.411L313.485 218.729L305.957 216.647V212.185L308.986 206.228L313.386 206.589L316.501 204.745L321.574 205.069L324.304 207.499L326.722 206.116L324.353 209.406L330.872 215.102L328.217 216.136L326.51 219.664L328.118 223.452L333.14 224.786L333.714 227.179L336.618 228.438L339.248 232.065L345.118 235.405L345.704 233.822L347.71 234.745L348.595 237L353.007 232.75L353.045 228.288L351.524 226.481L354.117 222.518L352.584 220.436L355.413 218.766L354.54 216.66L358.13 211.799L355.974 206.639L356.335 204.134L350.004 198.75L345.592 201.068L341.167 200.632L339.148 198.75L342.613 192.742L341.13 191.558L348.67 180.154L342.152 166.282L340.556 166.83L339.734 164.337L335.82 163.34L334.387 158.193Z" fill="black"/>
<path d="M272.268 294.794L274.698 294.271L277.515 291.055L279.385 291.292L280.27 289.472L283.946 288.862L285.081 284.35L288.421 282.642L290.153 284.101L297.856 281.994L303.577 286.145L305.646 285.347L310.943 287.428L313.199 290.008L318.271 293.897L319.941 298.284L325.513 298.833L320.702 305.426L322.92 310.486L328.018 315.895L331.944 317.229L332.866 325.243L344.831 334.89L341.292 339.177L338.138 337.457L332.542 341.134L328.853 339.913L319.842 342.792L319.069 346.369L320.427 348.151L318.147 347.727L317.474 348.812L317.399 354.495L312.438 355.069L310.818 353.735L304.823 355.218L300.386 351.429L296.747 351.616L290.004 348.263L286.514 345.496L283.984 337.37L276.892 336.061L277.004 331.55L279.21 327.96L276.169 321.741L272.729 320.893L270.062 322.975L267.258 318.475L262.858 317.628L265.388 313.901L262.26 310.885L260.652 303.482L263.194 301.089L268.915 300.54L270.012 296.278L272.268 294.794ZM273.228 200.632L272.654 203.124L274.499 205.48L282.102 202.726L285.243 204.595L292.447 202.987L292.359 205.866L298.292 213.282L302.243 211.662L305.957 212.198L305.945 216.66L313.485 218.741L315.006 220.436L311.504 224.786L318.259 234.981L314.869 236.851L311.765 236.639L312.189 240.715L310.681 243.893L306.157 247.52L304.636 246.411L299.002 247.345L296.348 250.698L298.217 254.587L295.463 257.566L292.783 256.93L289.468 259.099L285.916 259.41L278.126 256.394L275.06 260.744L273.901 259.909L272.256 260.906L270.847 259.261L269.264 260.819L265.475 260.457L263.082 262.401L259.568 260.482L256.202 264.919L259.518 269.207L256.738 276.398L262.123 293.037L258.097 293.311L255.916 296.091L252.364 295.717L250.594 297.811L246.144 297.474L243.315 299.718L240.249 299.855L232.372 305.899L227.025 306.111L223.51 309.352L221.504 308.779L219.809 306.024L215.16 305.899L210.723 302.958L202.559 307.295L196.876 303.182L192.987 308.479L189.372 310.012L184.723 306.224L182.655 307.146L180.997 306.012L169.78 310.349L167.997 309.152L165.567 309.875L165.305 313.652L162.999 315.372L160.457 315.023L158.699 317.553L158.974 321.043L156.194 326.14L157.403 330.864L152.966 333.195L151.134 338.741L140.951 337.657L137.723 339.352L132.9 336.523L130.606 337.482L127.902 334.541L124.736 336.136L122.131 335.688L125.534 330.553L124.661 328.982L118.492 326.477L118.517 324.52L115.874 323.025L104.034 328.546L104.757 326.838L99.3227 327.212L96.5184 325.779L95.97 321.392L98.3754 313.59L92.1561 310.735V308.118L88.3173 304.578L83.4814 307.246L82.235 311.371L80.3156 312.281L81.1258 315.521L79.2562 316.319L73.7099 314.749L72.1769 319.722L72.7004 324.171L69.0111 324.146L66.5184 326.489L64.1129 326.427L59.1399 315.646L61.7947 313.577L63.9509 307.283L65.4091 307.308L65.3717 305.102L62.3929 301.624L65.0352 297.661L64.5741 295.991L62.8665 295.592L62.7793 292.925L65.1848 288.176L68.0763 287.553L67.7024 286.332L70.5815 283.178L69.0734 276.61L70.432 271.849L69.223 270.64L71.5288 267.935L68.9114 267.275L67.503 265.268L69.6468 264.358L72.8624 265.268L82.5217 260.17L89.1274 249.801L93.0535 249.028L93.1033 244.703L97.0044 241.475L96.3189 235.094L93.7888 233.922L92.5923 231.205L94.7111 223.739L92.4926 220.362L93.2778 219.302L97.5279 219.19L94.9853 223.54L101.753 226.556L106.589 226.743L109.194 221.595L118.33 223.004L118.778 225.135L125.11 226.668L126.992 229.61L137.86 226.257L140.839 229.772L136.39 231.429L136.016 234.296L142.609 234.52L141.986 235.941L147.432 241.936L146.036 244.18L146.734 246.61L160.581 246.872L161.79 244.553L169.543 241.388L174.279 242.235L171.375 247.059L175.812 246.76L177.918 245.214L178.055 242.335L182.704 239.094L191.092 239.767L189.709 236.365L187.353 235.692L192.264 229.684L199.568 230.893L206.186 229.435L207.731 227.902L209.327 220.075L212.33 219.826L212.567 217.744L215.21 219.29L227.1 218.23L233.269 219.614L234.391 216.66L240.137 214.903L246.344 214.965L249.584 213.257L250.781 215.513L254.869 214.192L262.472 216.186L266.36 214.915L266.061 216.872L268.865 216.074L268.579 211.4L264.914 202.264L270 200.507L274.15 195.933L274.985 197.428L273.228 200.632Z" fill="black"/>
<path d="M29.9127 217.807L32.2434 219.988L31.2214 224.662L37.0419 227.478L37.6651 224.537L41.6161 227.254L45.8412 226.506L46.5766 224.811L46.0531 228.45L49.0569 231.18L48.2342 231.94L49.5928 234.121L53.8553 233.448L56.4852 238.085L58.5167 237.686L60.0124 242.136L56.6098 245.127L59.3767 252.854L61.3335 250L65.9575 250.922L67.8022 247.333L70.8059 249.265L72.2143 248.043L73.1989 248.891L69.4598 256.892L70.5068 260.195L66.9546 262.551L67.4781 265.243L68.874 267.25L71.4914 267.898L69.1856 270.602L70.4071 271.824L69.0485 276.585L70.5566 283.153L67.6775 286.307L68.0514 287.528L65.1599 288.164L62.7544 292.912L62.8416 295.58L64.5616 295.978L65.0103 297.649L62.3805 301.612L65.3468 305.089L65.3967 307.308L63.9384 307.27L61.7822 313.577L59.1399 315.634L64.1129 326.415L60.1121 327.81L58.3547 324.931L55.1516 324.832L51.5122 319.086L48.7079 318.961L47.3867 316.98L43.5604 317.366L37.4657 314.225L36.8425 310L38.9613 306.261L36.8923 303.257L37.6402 301.699L33.415 302.821L28.0556 299.119L21.6493 298.334L17.823 295.567L13.1491 297.2L10.619 295.829L10.806 293.448L12.9871 292.202L12.9497 285.708L12.0773 283.103L6.69297 279.439L7.9518 275.027L5.78312 271.911L6.81761 269.543L2.94142 265.181L8.21353 258.912L10.3323 253.203L12.2268 251.072L16.2027 250.162L17.125 247.607L15.0561 245.463L14.2833 241.288L15.6294 238.322L10.8558 235.866L9.39758 236.751L0 222.742L22.958 226.73L26.211 218.666L29.9127 217.807Z" fill="black"/>
<path d="M686.547 110.619L686.97 110.719L687.045 110.482L689.401 110.133L690.834 112.065L690.996 112.626L691.171 114.446L694.399 116.901L694.947 114.333L696.43 114.433L698.1 115.306L697.614 117.225L699.01 118.733L701.466 118.945L700.431 130.923L701.74 131.409L702.026 133.802L704.245 134.088L704.594 136.693L703.759 137.578L698.2 134.3L690.136 137.566L690.448 140.133L679.716 137.516L678.146 140.133L673.983 138.064L669.11 139.485L670.655 137.728L669.035 137.815L667.876 135.895L668.761 135.011L666.804 134.836L665.246 132.48L667.128 127.944L666.754 124.84L665.196 124.591L666.567 123.756L667.465 118.895L668.287 119.356L670.755 122.098L672.513 121.999L675.803 117.624L680.14 115.717L681.623 114.795L682.284 115.729L684.465 115.094L684.752 112.9L684.216 111.143L686.223 110.457L686.547 110.619Z" fill="black"/>
<g filter="url(#filter0_f_421_267)">
<path d="M421.149 214.772C457.917 214.772 487.722 184.711 487.722 147.628C487.722 110.545 457.917 80.4832 421.149 80.4832C384.382 80.4832 354.577 110.545 354.577 147.628C354.577 184.711 384.382 214.772 421.149 214.772Z" fill="#022EC7"/>
<path d="M421.149 214.772C457.917 214.772 487.722 184.711 487.722 147.628C487.722 110.545 457.917 80.4832 421.149 80.4832C384.382 80.4832 354.577 110.545 354.577 147.628C354.577 184.711 384.382 214.772 421.149 214.772Z" stroke="black" stroke-width="0.106" stroke-miterlimit="1.5"/>
</g>
<path d="M464.5 238L525.5 337L409 405.5L440.5 480" stroke="#022EC7" stroke-width="6" stroke-linecap="round" stroke-linejoin="round"/>
<defs>
<filter id="filter0_f_421_267" x="274.165" y="0.0716019" width="293.969" height="295.112" filterUnits="userSpaceOnUse" color-interpolation-filters="sRGB">
<feFlood flood-opacity="0" result="BackgroundImageFix"/>
<feBlend mode="normal" in="SourceGraphic" in2="BackgroundImageFix" result="shape"/>
<feGaussianBlur stdDeviation="40.1793" result="effect1_foregroundBlur_421_267"/>
</filter>
</defs>
</svg>
