<svg width="133" height="182" viewBox="0 0 133 182" fill="none" xmlns="http://www.w3.org/2000/svg">
<path d="M22.1667 60.9583C25.1061 60.9583 27.9252 62.126 30.0038 64.2045C32.0823 66.283 33.25 69.1021 33.25 72.0416V77.5833H99.75V72.0416C99.75 69.1021 100.918 66.283 102.996 64.2045C105.075 62.126 107.894 60.9583 110.833 60.9583C113.773 60.9583 116.592 62.126 118.67 64.2045C120.749 66.283 121.917 69.1021 121.917 72.0416V99.7499C121.917 101.22 121.333 102.629 120.294 103.668C119.254 104.708 117.845 105.292 116.375 105.292H16.625C15.1553 105.292 13.7457 104.708 12.7064 103.668C11.6672 102.629 11.0833 101.22 11.0833 99.7499V72.0416C11.0833 69.1021 12.251 66.283 14.3296 64.2045C16.4081 62.126 19.2272 60.9583 22.1667 60.9583V60.9583Z" stroke="black" stroke-width="11.0833" stroke-linecap="round" stroke-linejoin="round"/>
<path d="M22.1667 60.9583V44.3333C22.1667 39.924 23.9182 35.6954 27.036 32.5776C30.1538 29.4598 34.3824 27.7083 38.7917 27.7083H94.2083C98.6176 27.7083 102.846 29.4598 105.964 32.5776C109.082 35.6954 110.833 39.924 110.833 44.3333V60.9583" stroke="black" stroke-width="11.0833" stroke-linecap="round" stroke-linejoin="round"/>
<path d="M66.5 27.7083V77.5833" stroke="black" stroke-width="11.0833" stroke-linecap="round" stroke-linejoin="round"/>
<path d="M72 124L90.5 138.5L42 150L67 179" stroke="#022EC7" stroke-width="6" stroke-linecap="round" stroke-linejoin="round"/>
</svg>
