<svg width="376" height="410" viewBox="0 0 376 410" fill="none" xmlns="http://www.w3.org/2000/svg">
<path d="M62.6667 104.743C62.6667 116.381 72.5143 125.333 83.2571 125.333C94 125.333 103.848 115.486 103.848 104.743C103.848 93.1048 94.8952 84.1525 83.2571 84.1525C71.6191 84.1525 62.6667 93.1048 62.6667 104.743ZM140.552 236.343L104.743 218.438V142.343C104.743 137.867 101.162 133.391 95.7905 133.391H71.6191C67.1429 133.391 62.6667 136.972 62.6667 142.343V221.124C62.6667 224.705 65.3524 228.286 68.9333 229.181L123.543 251.562V300.8C123.543 305.276 127.124 309.752 132.495 309.752H137.867C142.343 309.752 146.819 306.172 146.819 300.8V244.4C145.924 240.819 143.238 237.238 140.552 236.343ZM272.152 104.743C272.152 116.381 282 125.333 292.743 125.333C304.381 125.333 313.333 115.486 313.333 104.743C313.333 93.1048 304.381 84.1525 292.743 84.1525C281.105 84.1525 271.257 93.1048 272.152 104.743ZM304.381 133.391H280.21C275.733 133.391 271.257 136.972 271.257 142.343V218.438L235.448 236.343C231.867 237.238 230.076 240.819 230.076 244.4V300.8C230.076 305.276 233.657 309.752 239.029 309.752H244.4C248.876 309.752 253.352 306.172 253.352 300.8V251.562L307.962 229.181C311.543 228.286 314.229 224.705 314.229 221.124V142.343C313.333 137.867 309.752 134.286 304.381 133.391ZM175.467 209.486H170.095C165.619 209.486 161.143 213.067 161.143 218.438V277.524C161.143 282 164.724 286.476 170.095 286.476H175.467C179.943 286.476 184.419 282.895 184.419 277.524V218.438C183.524 213.962 179.943 209.486 175.467 209.486ZM205.905 209.486H200.533C196.057 209.486 191.581 213.067 191.581 218.438V277.524C191.581 282 195.162 286.476 200.533 286.476H205.905C210.381 286.476 214.857 282.895 214.857 277.524V218.438C214.857 213.962 210.381 209.486 205.905 209.486ZM167.41 83.2572C167.41 94.8953 177.257 103.848 188 103.848C198.743 103.848 208.59 94.0001 208.59 83.2572C208.59 71.6191 199.638 62.6667 188 62.6667C176.362 62.6667 167.41 72.5144 167.41 83.2572ZM125.333 198.743H250.667C255.143 198.743 257.829 195.162 257.829 191.581C257.829 188 254.248 184.419 250.667 184.419H216.648V124.438C216.648 119.962 213.067 115.486 207.695 115.486H168.305C163.829 115.486 159.352 119.067 159.352 124.438V184.419H125.333C120.857 184.419 118.171 188 118.171 191.581C118.171 195.162 120.857 198.743 125.333 198.743Z" fill="black"/>
<path d="M188.5 303V333.5L223 369.441L152 383.651L182 406.955" stroke="#022EC7" stroke-width="6" stroke-linecap="round" stroke-linejoin="round"/>
</svg>
