<svg viewBox="0 0 1024 517" fill="none" xmlns="http://www.w3.org/2000/svg">
<path d="M166.049 306.349V281.663H218.15V232.291H166.049V205C165.895 202.706 165.816 200.383 165.816 198.042C165.816 142.828 209.578 98 263.48 98C317.381 98 361.143 142.828 361.143 198.042V230.323C351.406 234.285 344.542 243.848 344.542 255.002C344.542 266.156 351.406 275.719 361.143 279.681V306.349" stroke="#022EC7" stroke-width="19.146" stroke-miterlimit="1.5" stroke-linecap="round" stroke-linejoin="round"/>
<path d="M361.213 230.343C364.313 229.062 367.711 228.362 371.272 228.362C385.986 228.362 397.933 240.308 397.933 255.023C397.933 269.737 385.986 281.683 371.272 281.683C367.711 281.683 364.313 280.984 361.213 279.702" stroke="#022EC7" stroke-width="19.1513" stroke-miterlimit="1.5" stroke-linecap="round" stroke-linejoin="round"/>
<path d="M273.399 281.684C288.123 281.684 300.06 269.747 300.06 255.023C300.06 240.299 288.123 228.362 273.399 228.362C258.675 228.362 246.738 240.299 246.738 255.023C246.738 269.747 258.675 281.684 273.399 281.684Z" stroke="#022EC7" stroke-width="19.1513" stroke-miterlimit="1.5" stroke-linecap="round" stroke-linejoin="round"/>
<path d="M300.027 255.007H344.461" stroke="#022EC7" stroke-width="19.1513" stroke-miterlimit="1.5" stroke-linecap="round" stroke-linejoin="round"/>
<path d="M165.869 232.31H137V281.682H165.869" stroke="#022EC7" stroke-width="19.1513" stroke-miterlimit="1.5" stroke-linecap="round" stroke-linejoin="round"/>
<path d="M166.049 281.682H218.15V232.31H165.816" stroke="#022EC7" stroke-width="19.1513" stroke-miterlimit="1.5" stroke-linecap="round" stroke-linejoin="round"/>
<path d="M165.816 304.842V381.201C165.816 391.637 174.568 400.111 185.349 400.111C196.129 400.111 204.881 391.637 204.881 381.201V347.991" stroke="#022EC7" stroke-width="19.1434" stroke-miterlimit="1.5" stroke-linecap="round" stroke-linejoin="round"/>
<path d="M204.894 380.04V349.393C204.894 338.957 213.646 330.483 224.427 330.483C235.207 330.483 243.959 338.957 243.959 349.393" stroke="#022EC7" stroke-width="19.1434" stroke-miterlimit="1.5" stroke-linecap="round" stroke-linejoin="round"/>
<path d="M243.973 350.533V400.09C243.973 410.527 252.726 419 263.506 419C274.287 419 283.039 410.527 283.039 400.09V350.533" stroke="#022EC7" stroke-width="19.1434" stroke-miterlimit="1.5" stroke-linecap="round" stroke-linejoin="round"/>
<path d="M322.131 350.563V381.21C322.131 391.647 330.883 400.12 341.663 400.12C352.444 400.12 361.196 391.647 361.196 381.21V300.698" stroke="#022EC7" stroke-width="19.1434" stroke-miterlimit="1.5" stroke-linecap="round" stroke-linejoin="round"/>
<path d="M283.052 382.606V351.959C283.052 341.522 291.804 333.049 302.585 333.049C313.365 333.049 322.118 341.522 322.118 351.959" stroke="#022EC7" stroke-width="19.1434" stroke-miterlimit="1.5" stroke-linecap="round" stroke-linejoin="round"/>
<path d="M472.144 323.273L458.686 276.237H469.549L477.335 308.919H477.725L486.315 276.237H495.616L504.183 308.988H504.596L512.382 276.237H523.245L509.786 323.273H500.095L491.138 292.521H490.77L481.836 323.273H472.144ZM534.654 323.939C532.403 323.939 530.397 323.548 528.636 322.767C526.876 321.971 525.482 320.8 524.456 319.254C523.446 317.692 522.941 315.747 522.941 313.42C522.941 311.46 523.3 309.814 524.02 308.482C524.74 307.15 525.72 306.078 526.96 305.267C528.2 304.455 529.609 303.843 531.186 303.43C532.778 303.016 534.447 302.725 536.192 302.557C538.244 302.343 539.898 302.144 541.153 301.96C542.409 301.761 543.32 301.47 543.886 301.087C544.453 300.704 544.736 300.138 544.736 299.388V299.25C544.736 297.795 544.276 296.67 543.358 295.874C542.454 295.077 541.168 294.679 539.499 294.679C537.739 294.679 536.338 295.07 535.297 295.851C534.255 296.616 533.566 297.581 533.23 298.744L524.181 298.01C524.64 295.866 525.543 294.013 526.891 292.452C528.238 290.875 529.976 289.665 532.104 288.823C534.248 287.965 536.728 287.537 539.545 287.537C541.505 287.537 543.381 287.766 545.172 288.226C546.979 288.685 548.579 289.397 549.972 290.362C551.381 291.326 552.491 292.566 553.302 294.082C554.114 295.583 554.52 297.382 554.52 299.479V323.273H545.241V318.381H544.965C544.399 319.483 543.641 320.455 542.692 321.298C541.743 322.124 540.602 322.775 539.27 323.25C537.938 323.709 536.399 323.939 534.654 323.939ZM537.455 317.187C538.895 317.187 540.165 316.903 541.268 316.337C542.37 315.755 543.235 314.974 543.863 313.994C544.491 313.014 544.805 311.904 544.805 310.664V306.921C544.498 307.12 544.077 307.303 543.542 307.472C543.021 307.625 542.431 307.77 541.773 307.908C541.115 308.031 540.456 308.145 539.798 308.253C539.14 308.344 538.542 308.429 538.007 308.505C536.858 308.674 535.855 308.942 534.998 309.309C534.141 309.677 533.475 310.174 533 310.802C532.525 311.414 532.288 312.18 532.288 313.099C532.288 314.431 532.77 315.449 533.735 316.153C534.715 316.842 535.955 317.187 537.455 317.187ZM580.874 287.996V295.345H559.63V287.996H580.874ZM564.453 279.544H574.236V312.433C574.236 313.336 574.374 314.04 574.65 314.545C574.925 315.035 575.308 315.38 575.798 315.579C576.303 315.778 576.885 315.877 577.543 315.877C578.003 315.877 578.462 315.839 578.921 315.763C579.381 315.671 579.733 315.602 579.978 315.556L581.517 322.836C581.027 322.989 580.338 323.166 579.45 323.365C578.562 323.579 577.482 323.709 576.211 323.755C573.854 323.847 571.787 323.533 570.01 322.813C568.25 322.094 566.879 320.976 565.899 319.46C564.92 317.944 564.437 316.031 564.453 313.719V279.544ZM602.944 323.962C599.316 323.962 596.192 323.227 593.574 321.757C590.971 320.272 588.966 318.174 587.557 315.464C586.148 312.739 585.444 309.516 585.444 305.795C585.444 302.166 586.148 298.982 587.557 296.241C588.966 293.5 590.948 291.365 593.505 289.833C596.077 288.302 599.094 287.537 602.554 287.537C604.881 287.537 607.048 287.912 609.054 288.662C611.075 289.397 612.835 290.507 614.336 291.992C615.852 293.477 617.031 295.345 617.873 297.596C618.715 299.832 619.136 302.45 619.136 305.451V308.138H589.348V302.075H609.926C609.926 300.666 609.62 299.418 609.008 298.331C608.395 297.244 607.545 296.394 606.458 295.782C605.387 295.154 604.139 294.84 602.715 294.84C601.23 294.84 599.913 295.185 598.765 295.874C597.632 296.547 596.744 297.458 596.1 298.607C595.457 299.74 595.128 301.003 595.113 302.396V308.161C595.113 309.906 595.434 311.414 596.077 312.685C596.736 313.956 597.662 314.936 598.856 315.625C600.051 316.314 601.467 316.658 603.105 316.658C604.192 316.658 605.188 316.505 606.091 316.199C606.994 315.893 607.767 315.433 608.411 314.821C609.054 314.209 609.544 313.458 609.88 312.57L618.929 313.167C618.47 315.342 617.528 317.24 616.104 318.863C614.696 320.471 612.874 321.726 610.638 322.63C608.418 323.518 605.854 323.962 602.944 323.962ZM625.521 323.273V287.996H635.006V294.151H635.373C636.016 291.962 637.096 290.308 638.611 289.19C640.127 288.057 641.873 287.491 643.848 287.491C644.338 287.491 644.866 287.521 645.433 287.583C645.999 287.644 646.497 287.728 646.925 287.835V296.517C646.466 296.379 645.831 296.256 645.019 296.149C644.208 296.042 643.465 295.988 642.791 295.988C641.352 295.988 640.066 296.302 638.933 296.93C637.815 297.543 636.927 298.4 636.269 299.502C635.626 300.605 635.304 301.876 635.304 303.315V323.273H625.521ZM652.167 323.273V276.237H661.951V293.921H662.25C662.678 292.972 663.299 292.008 664.11 291.028C664.937 290.032 666.009 289.206 667.325 288.547C668.657 287.874 670.311 287.537 672.286 287.537C674.858 287.537 677.232 288.21 679.406 289.558C681.58 290.89 683.318 292.903 684.619 295.598C685.921 298.277 686.571 301.638 686.571 305.68C686.571 309.615 685.936 312.938 684.665 315.648C683.41 318.343 681.695 320.387 679.521 321.78C677.362 323.158 674.943 323.847 672.263 323.847C670.365 323.847 668.749 323.533 667.417 322.905C666.101 322.277 665.021 321.489 664.179 320.54C663.337 319.575 662.694 318.603 662.25 317.623H661.813V323.273H652.167ZM661.745 305.634C661.745 307.732 662.035 309.562 662.617 311.123C663.199 312.685 664.041 313.902 665.144 314.775C666.246 315.633 667.586 316.061 669.163 316.061C670.755 316.061 672.102 315.625 673.205 314.752C674.307 313.864 675.142 312.639 675.708 311.077C676.29 309.5 676.581 307.686 676.581 305.634C676.581 303.598 676.298 301.807 675.731 300.26C675.165 298.714 674.33 297.504 673.228 296.632C672.125 295.759 670.77 295.322 669.163 295.322C667.57 295.322 666.223 295.743 665.121 296.586C664.034 297.428 663.199 298.622 662.617 300.168C662.035 301.715 661.745 303.537 661.745 305.634ZM698.003 336.501C696.763 336.501 695.599 336.402 694.512 336.203C693.44 336.019 692.552 335.782 691.848 335.491L694.053 328.188C695.201 328.54 696.234 328.731 697.153 328.762C698.087 328.792 698.891 328.578 699.565 328.119C700.254 327.659 700.812 326.878 701.241 325.776L701.815 324.283L689.161 287.996H699.45L706.753 313.902H707.121L714.493 287.996H724.851L711.14 327.085C710.481 328.984 709.586 330.637 708.453 332.046C707.335 333.47 705.919 334.565 704.204 335.33C702.489 336.111 700.422 336.501 698.003 336.501ZM748.621 287.996V295.345H727.377V287.996H748.621ZM732.2 279.544H741.984V312.433C741.984 313.336 742.122 314.04 742.397 314.545C742.673 315.035 743.056 315.38 743.546 315.579C744.051 315.778 744.633 315.877 745.291 315.877C745.75 315.877 746.21 315.839 746.669 315.763C747.128 315.671 747.48 315.602 747.725 315.556L749.264 322.836C748.774 322.989 748.085 323.166 747.197 323.365C746.309 323.579 745.23 323.709 743.959 323.755C741.601 323.847 739.534 323.533 737.758 322.813C735.997 322.094 734.627 320.976 733.647 319.46C732.667 317.944 732.185 316.031 732.2 313.719V279.544ZM770.692 323.962C767.063 323.962 763.94 323.227 761.322 321.757C758.719 320.272 756.713 318.174 755.304 315.464C753.896 312.739 753.191 309.516 753.191 305.795C753.191 302.166 753.896 298.982 755.304 296.241C756.713 293.5 758.696 291.365 761.253 289.833C763.825 288.302 766.841 287.537 770.302 287.537C772.629 287.537 774.795 287.912 776.801 288.662C778.822 289.397 780.583 290.507 782.083 291.992C783.599 293.477 784.778 295.345 785.62 297.596C786.462 299.832 786.883 302.45 786.883 305.451V308.138H757.096V302.075H777.674C777.674 300.666 777.368 299.418 776.755 298.331C776.143 297.244 775.293 296.394 774.206 295.782C773.134 295.154 771.886 294.84 770.462 294.84C768.977 294.84 767.66 295.185 766.512 295.874C765.379 296.547 764.491 297.458 763.848 298.607C763.205 299.74 762.876 301.003 762.86 302.396V308.161C762.86 309.906 763.182 311.414 763.825 312.685C764.483 313.956 765.41 314.936 766.604 315.625C767.798 316.314 769.214 316.658 770.853 316.658C771.94 316.658 772.935 316.505 773.838 316.199C774.742 315.893 775.515 315.433 776.158 314.821C776.801 314.209 777.291 313.458 777.628 312.57L786.677 313.167C786.217 315.342 785.276 317.24 783.852 318.863C782.443 320.471 780.621 321.726 778.386 322.63C776.166 323.518 773.601 323.962 770.692 323.962Z" fill="black"/>
<path d="M463.595 229.445V182.41H495.289V190.609H473.54V201.817H493.659V210.016H473.54V221.246H495.381V229.445H463.595ZM512.795 209.051V229.445H503.012V194.169H512.336V200.393H512.749C513.53 198.341 514.839 196.718 516.677 195.524C518.514 194.314 520.742 193.71 523.36 193.71C525.81 193.71 527.946 194.245 529.768 195.317C531.59 196.389 533.006 197.92 534.016 199.91C535.027 201.886 535.532 204.243 535.532 206.984V229.445H525.749V208.73C525.764 206.571 525.213 204.887 524.095 203.677C522.977 202.452 521.438 201.84 519.479 201.84C518.162 201.84 516.998 202.123 515.988 202.689C514.993 203.256 514.212 204.083 513.645 205.17C513.094 206.242 512.811 207.535 512.795 209.051ZM559.136 243.409C555.967 243.409 553.249 242.973 550.983 242.1C548.732 241.243 546.941 240.071 545.609 238.586C544.277 237.101 543.412 235.432 543.014 233.579L552.062 232.362C552.338 233.066 552.774 233.725 553.372 234.337C553.969 234.95 554.757 235.44 555.737 235.807C556.732 236.19 557.942 236.381 559.366 236.381C561.494 236.381 563.247 235.861 564.625 234.82C566.018 233.794 566.715 232.071 566.715 229.652V223.199H566.302C565.873 224.178 565.23 225.105 564.372 225.977C563.515 226.85 562.413 227.562 561.065 228.113C559.718 228.665 558.11 228.94 556.242 228.94C553.594 228.94 551.182 228.328 549.008 227.103C546.849 225.863 545.127 223.972 543.84 221.43C542.57 218.873 541.934 215.643 541.934 211.738C541.934 207.742 542.585 204.404 543.886 201.725C545.188 199.045 546.918 197.04 549.077 195.708C551.251 194.376 553.632 193.71 556.219 193.71C558.194 193.71 559.848 194.046 561.18 194.72C562.512 195.378 563.584 196.205 564.395 197.2C565.222 198.18 565.858 199.145 566.302 200.094H566.669V194.169H576.384V229.79C576.384 232.791 575.649 235.302 574.179 237.323C572.709 239.344 570.673 240.86 568.07 241.87C565.483 242.896 562.505 243.409 559.136 243.409ZM559.343 221.591C560.92 221.591 562.252 221.2 563.339 220.42C564.441 219.623 565.283 218.49 565.865 217.021C566.462 215.535 566.761 213.759 566.761 211.692C566.761 209.625 566.47 207.834 565.888 206.318C565.306 204.787 564.464 203.6 563.362 202.758C562.26 201.916 560.92 201.495 559.343 201.495C557.735 201.495 556.38 201.932 555.278 202.804C554.175 203.662 553.341 204.856 552.774 206.387C552.208 207.918 551.925 209.687 551.925 211.692C551.925 213.729 552.208 215.489 552.774 216.975C553.356 218.444 554.191 219.585 555.278 220.397C556.38 221.193 557.735 221.591 559.343 221.591ZM600.246 230.134C596.617 230.134 593.494 229.4 590.876 227.93C588.273 226.444 586.267 224.347 584.859 221.637C583.45 218.911 582.746 215.688 582.746 211.968C582.746 208.339 583.45 205.155 584.859 202.414C586.267 199.673 588.25 197.537 590.807 196.006C593.379 194.475 596.395 193.71 599.856 193.71C602.183 193.71 604.35 194.085 606.355 194.835C608.376 195.57 610.137 196.68 611.638 198.165C613.153 199.65 614.332 201.518 615.174 203.769C616.017 206.004 616.438 208.622 616.438 211.623V214.31H586.65V208.247H607.228C607.228 206.839 606.922 205.591 606.309 204.504C605.697 203.417 604.847 202.567 603.76 201.955C602.688 201.327 601.44 201.013 600.017 201.013C598.531 201.013 597.215 201.357 596.066 202.046C594.933 202.72 594.045 203.631 593.402 204.779C592.759 205.912 592.43 207.176 592.415 208.569V214.333C592.415 216.079 592.736 217.587 593.379 218.858C594.038 220.129 594.964 221.109 596.158 221.798C597.352 222.487 598.769 222.831 600.407 222.831C601.494 222.831 602.489 222.678 603.393 222.372C604.296 222.066 605.069 221.606 605.712 220.994C606.355 220.381 606.845 219.631 607.182 218.743L616.231 219.34C615.772 221.514 614.83 223.413 613.406 225.036C611.997 226.644 610.175 227.899 607.94 228.802C605.72 229.69 603.155 230.134 600.246 230.134ZM632.606 182.41V229.445H622.822V182.41H632.606ZM640.627 229.445V182.41H650.411V200.094H650.709C651.138 199.145 651.758 198.18 652.57 197.2C653.396 196.205 654.468 195.378 655.785 194.72C657.117 194.046 658.771 193.71 660.746 193.71C663.318 193.71 665.691 194.383 667.865 195.731C670.04 197.063 671.777 199.076 673.079 201.771C674.38 204.45 675.031 207.811 675.031 211.853C675.031 215.788 674.396 219.11 673.125 221.821C671.869 224.515 670.154 226.559 667.98 227.953C665.821 229.331 663.402 230.02 660.723 230.02C658.824 230.02 657.209 229.706 655.877 229.078C654.56 228.45 653.481 227.662 652.639 226.712C651.796 225.748 651.153 224.776 650.709 223.796H650.273V229.445H640.627ZM650.204 211.807C650.204 213.905 650.495 215.734 651.077 217.296C651.659 218.858 652.501 220.075 653.603 220.948C654.706 221.805 656.045 222.234 657.622 222.234C659.215 222.234 660.562 221.798 661.664 220.925C662.767 220.037 663.601 218.812 664.168 217.25C664.75 215.673 665.041 213.859 665.041 211.807C665.041 209.771 664.757 207.979 664.191 206.433C663.624 204.887 662.79 203.677 661.687 202.804C660.585 201.932 659.23 201.495 657.622 201.495C656.03 201.495 654.683 201.916 653.58 202.758C652.493 203.6 651.659 204.795 651.077 206.341C650.495 207.888 650.204 209.71 650.204 211.807ZM686.463 242.674C685.222 242.674 684.059 242.575 682.972 242.376C681.9 242.192 681.012 241.955 680.308 241.664L682.512 234.36C683.661 234.712 684.694 234.904 685.613 234.934C686.547 234.965 687.351 234.751 688.024 234.291C688.713 233.832 689.272 233.051 689.701 231.949L690.275 230.456L677.62 194.169H687.909L695.213 220.075H695.58L702.953 194.169H713.31L699.599 233.258C698.941 235.156 698.045 236.81 696.912 238.219C695.795 239.643 694.378 240.737 692.664 241.503C690.949 242.284 688.882 242.674 686.463 242.674ZM737.081 194.169V201.518H715.837V194.169H737.081ZM720.66 185.717H730.443V218.605C730.443 219.509 730.581 220.213 730.857 220.718C731.132 221.208 731.515 221.553 732.005 221.752C732.51 221.951 733.092 222.05 733.751 222.05C734.21 222.05 734.669 222.012 735.129 221.935C735.588 221.844 735.94 221.775 736.185 221.729L737.724 229.009C737.234 229.162 736.545 229.338 735.657 229.537C734.769 229.752 733.689 229.882 732.419 229.928C730.061 230.02 727.994 229.706 726.218 228.986C724.457 228.266 723.086 227.149 722.107 225.633C721.127 224.117 720.644 222.203 720.66 219.891V185.717ZM759.152 230.134C755.523 230.134 752.399 229.4 749.781 227.93C747.178 226.444 745.173 224.347 743.764 221.637C742.355 218.911 741.651 215.688 741.651 211.968C741.651 208.339 742.355 205.155 743.764 202.414C745.173 199.673 747.155 197.537 749.712 196.006C752.285 194.475 755.301 193.71 758.761 193.71C761.088 193.71 763.255 194.085 765.261 194.835C767.282 195.57 769.043 196.68 770.543 198.165C772.059 199.65 773.238 201.518 774.08 203.769C774.922 206.004 775.343 208.622 775.343 211.623V214.31H745.555V208.247H766.133C766.133 206.839 765.827 205.591 765.215 204.504C764.602 203.417 763.753 202.567 762.665 201.955C761.594 201.327 760.346 201.013 758.922 201.013C757.437 201.013 756.12 201.357 754.972 202.046C753.839 202.72 752.951 203.631 752.308 204.779C751.665 205.912 751.335 207.176 751.32 208.569V214.333C751.32 216.079 751.642 217.587 752.285 218.858C752.943 220.129 753.869 221.109 755.064 221.798C756.258 222.487 757.674 222.831 759.312 222.831C760.399 222.831 761.395 222.678 762.298 222.372C763.201 222.066 763.975 221.606 764.618 220.994C765.261 220.381 765.751 219.631 766.087 218.743L775.136 219.34C774.677 221.514 773.735 223.413 772.311 225.036C770.903 226.644 769.081 227.899 766.845 228.802C764.625 229.69 762.061 230.134 759.152 230.134ZM789.927 182.41V187.371C789.927 188.779 789.651 190.219 789.1 191.688C788.564 193.143 787.844 194.521 786.941 195.822C786.038 197.109 785.05 198.203 783.978 199.107L779.661 196.557C780.426 195.348 781.1 194.008 781.682 192.538C782.279 191.068 782.577 189.361 782.577 187.417V182.41H789.927ZM821.374 204.228L812.417 204.779C812.264 204.014 811.934 203.325 811.429 202.712C810.924 202.085 810.258 201.587 809.431 201.22C808.62 200.837 807.647 200.645 806.514 200.645C804.999 200.645 803.72 200.967 802.679 201.61C801.638 202.238 801.117 203.08 801.117 204.136C801.117 204.978 801.454 205.69 802.128 206.272C802.801 206.854 803.957 207.321 805.596 207.673L811.98 208.959C815.41 209.664 817.967 210.797 819.651 212.358C821.335 213.92 822.177 215.972 822.177 218.513C822.177 220.825 821.496 222.854 820.133 224.599C818.786 226.345 816.933 227.708 814.576 228.688C812.233 229.652 809.531 230.134 806.468 230.134C801.799 230.134 798.078 229.162 795.307 227.218C792.551 225.258 790.935 222.594 790.461 219.225L800.084 218.72C800.375 220.144 801.079 221.231 802.197 221.981C803.314 222.716 804.746 223.084 806.491 223.084C808.206 223.084 809.584 222.755 810.625 222.096C811.682 221.422 812.218 220.557 812.233 219.501C812.218 218.613 811.843 217.886 811.108 217.319C810.373 216.737 809.24 216.293 807.709 215.987L801.599 214.77C798.155 214.081 795.59 212.887 793.906 211.187C792.237 209.488 791.402 207.321 791.402 204.688C791.402 202.421 792.015 200.469 793.24 198.831C794.48 197.193 796.218 195.93 798.453 195.042C800.704 194.154 803.337 193.71 806.354 193.71C810.809 193.71 814.315 194.651 816.872 196.534C819.444 198.418 820.945 200.982 821.374 204.228Z" fill="#5E5E5E"/>
</svg>
