<svg width="79" height="96" viewBox="0 0 79 96" fill="none" xmlns="http://www.w3.org/2000/svg">
<path d="M11.1454 61.4155V54.4942H25.7532V40.6517H11.1454V33C11.1021 32.3568 11.0801 31.7056 11.0801 31.0492C11.0801 15.5685 23.3497 3 38.4624 3C53.575 3 65.8446 15.5685 65.8446 31.0492V40.0998C63.1145 41.2108 61.1901 43.8921 61.1901 47.0193C61.1901 50.1465 63.1145 52.8277 65.8446 53.9387V61.4155" stroke="#022EC7" stroke-width="5.36803" stroke-miterlimit="1.5" stroke-linecap="round" stroke-linejoin="round"/>
<path d="M65.8643 40.1053C66.7334 39.746 67.6864 39.5498 68.6847 39.5498C72.8102 39.5498 76.1596 42.8993 76.1596 47.0248C76.1596 51.1503 72.8102 54.4998 68.6847 54.4998C67.6864 54.4998 66.7334 54.3036 65.8643 53.9443" stroke="#022EC7" stroke-width="5.36952" stroke-miterlimit="1.5" stroke-linecap="round" stroke-linejoin="round"/>
<path d="M41.2435 54.4998C45.3718 54.4998 48.7185 51.1531 48.7185 47.0248C48.7185 42.8965 45.3718 39.5498 41.2435 39.5498C37.1152 39.5498 33.7686 42.8965 33.7686 47.0248C33.7686 51.1531 37.1152 54.4998 41.2435 54.4998Z" stroke="#022EC7" stroke-width="5.36952" stroke-miterlimit="1.5" stroke-linecap="round" stroke-linejoin="round"/>
<path d="M48.709 47.0205H61.1673" stroke="#022EC7" stroke-width="5.36952" stroke-miterlimit="1.5" stroke-linecap="round" stroke-linejoin="round"/>
<path d="M11.094 40.6562H3V54.4988H11.094" stroke="#022EC7" stroke-width="5.36952" stroke-miterlimit="1.5" stroke-linecap="round" stroke-linejoin="round"/>
<path d="M11.1454 54.4988H25.7532V40.6562H11.0801" stroke="#022EC7" stroke-width="5.36952" stroke-miterlimit="1.5" stroke-linecap="round" stroke-linejoin="round"/>
<path d="M11.0801 60.9932V82.4022C11.0801 85.3284 13.534 87.7041 16.5565 87.7041C19.5791 87.7041 22.033 85.3284 22.033 82.4022V73.0909" stroke="#022EC7" stroke-width="5.36731" stroke-miterlimit="1.5" stroke-linecap="round" stroke-linejoin="round"/>
<path d="M22.0352 82.0762V73.4836C22.0352 70.5574 24.4891 68.1817 27.5116 68.1817C30.5342 68.1817 32.9881 70.5574 32.9881 73.4836" stroke="#022EC7" stroke-width="5.36731" stroke-miterlimit="1.5" stroke-linecap="round" stroke-linejoin="round"/>
<path d="M32.9932 73.8037V87.6982C32.9932 90.6244 35.4471 93.0001 38.4696 93.0001C41.4922 93.0001 43.9461 90.6244 43.9461 87.6982V73.8037" stroke="#022EC7" stroke-width="5.36731" stroke-miterlimit="1.5" stroke-linecap="round" stroke-linejoin="round"/>
<path d="M54.9062 73.813V82.4055C54.9062 85.3317 57.3602 87.7075 60.3827 87.7075C63.4053 87.7075 65.8592 85.3317 65.8592 82.4055V59.832" stroke="#022EC7" stroke-width="5.36731" stroke-miterlimit="1.5" stroke-linecap="round" stroke-linejoin="round"/>
<path d="M43.9492 82.7959V74.2034C43.9492 71.2771 46.4031 68.9014 49.4257 68.9014C52.4482 68.9014 54.9021 71.2771 54.9021 74.2034" stroke="#022EC7" stroke-width="5.36731" stroke-miterlimit="1.5" stroke-linecap="round" stroke-linejoin="round"/>
</svg>
