<svg fill="none" xmlns="http://www.w3.org/2000/svg">
<path d="M166.049 533.349V508.663H218.15V459.291H166.049V432C165.895 429.706 165.816 427.383 165.816 425.042C165.816 369.828 209.578 325 263.48 325C317.381 325 361.143 369.828 361.143 425.042V457.323C351.406 461.285 344.542 470.848 344.542 482.002C344.542 493.156 351.406 502.719 361.143 506.681V533.349" stroke="#022EC7" stroke-width="19.146" stroke-miterlimit="1.5" stroke-linecap="round" stroke-linejoin="round"/>
<path d="M361.213 457.343C364.313 456.062 367.712 455.362 371.272 455.362C385.986 455.362 397.933 467.308 397.933 482.023C397.933 496.737 385.986 508.683 371.272 508.683C367.712 508.683 364.313 507.984 361.213 506.702" stroke="#022EC7" stroke-width="19.1513" stroke-miterlimit="1.5" stroke-linecap="round" stroke-linejoin="round"/>
<path d="M273.399 508.684C288.123 508.684 300.06 496.747 300.06 482.023C300.06 467.299 288.123 455.362 273.399 455.362C258.675 455.362 246.738 467.299 246.738 482.023C246.738 496.747 258.675 508.684 273.399 508.684Z" stroke="#022EC7" stroke-width="19.1513" stroke-miterlimit="1.5" stroke-linecap="round" stroke-linejoin="round"/>
<path d="M300.027 482.007H344.461" stroke="#022EC7" stroke-width="19.1513" stroke-miterlimit="1.5" stroke-linecap="round" stroke-linejoin="round"/>
<path d="M165.869 459.31H137V508.682H165.869" stroke="#022EC7" stroke-width="19.1513" stroke-miterlimit="1.5" stroke-linecap="round" stroke-linejoin="round"/>
<path d="M166.049 508.682H218.15V459.31H165.816" stroke="#022EC7" stroke-width="19.1513" stroke-miterlimit="1.5" stroke-linecap="round" stroke-linejoin="round"/>
<path d="M165.816 531.842V608.201C165.816 618.637 174.568 627.111 185.349 627.111C196.129 627.111 204.881 618.637 204.881 608.201V574.991" stroke="#022EC7" stroke-width="19.1434" stroke-miterlimit="1.5" stroke-linecap="round" stroke-linejoin="round"/>
<path d="M204.894 607.04V576.393C204.894 565.957 213.646 557.483 224.427 557.483C235.207 557.483 243.959 565.957 243.959 576.393" stroke="#022EC7" stroke-width="19.1434" stroke-miterlimit="1.5" stroke-linecap="round" stroke-linejoin="round"/>
<path d="M243.973 577.533V627.09C243.973 637.527 252.726 646 263.506 646C274.287 646 283.039 637.527 283.039 627.09V577.533" stroke="#022EC7" stroke-width="19.1434" stroke-miterlimit="1.5" stroke-linecap="round" stroke-linejoin="round"/>
<path d="M322.131 577.563V608.21C322.131 618.647 330.883 627.12 341.664 627.12C352.444 627.12 361.196 618.647 361.196 608.21V527.698" stroke="#022EC7" stroke-width="19.1434" stroke-miterlimit="1.5" stroke-linecap="round" stroke-linejoin="round"/>
<path d="M283.052 609.606V578.959C283.052 568.522 291.804 560.049 302.585 560.049C313.365 560.049 322.118 568.522 322.118 578.959" stroke="#022EC7" stroke-width="19.1434" stroke-miterlimit="1.5" stroke-linecap="round" stroke-linejoin="round"/>
<path d="M472.144 550.273L458.686 503.237H469.549L477.335 535.919H477.725L486.315 503.237H495.616L504.183 535.988H504.596L512.382 503.237H523.245L509.786 550.273H500.095L491.138 519.521H490.77L481.836 550.273H472.144ZM534.653 550.939C532.403 550.939 530.397 550.548 528.636 549.767C526.875 548.971 525.482 547.8 524.456 546.254C523.446 544.692 522.941 542.747 522.941 540.42C522.941 538.46 523.3 536.814 524.02 535.482C524.74 534.15 525.719 533.078 526.96 532.267C528.2 531.455 529.608 530.843 531.185 530.43C532.778 530.016 534.447 529.725 536.192 529.557C538.244 529.343 539.897 529.144 541.153 528.96C542.408 528.761 543.319 528.47 543.886 528.087C544.452 527.704 544.736 527.138 544.736 526.388V526.25C544.736 524.795 544.276 523.67 543.358 522.874C542.454 522.077 541.168 521.679 539.499 521.679C537.739 521.679 536.338 522.07 535.297 522.851C534.255 523.616 533.566 524.581 533.23 525.744L524.181 525.01C524.64 522.866 525.543 521.013 526.891 519.452C528.238 517.875 529.976 516.665 532.104 515.823C534.248 514.965 536.728 514.537 539.545 514.537C541.505 514.537 543.381 514.766 545.172 515.226C546.979 515.685 548.579 516.397 549.972 517.362C551.381 518.326 552.491 519.566 553.302 521.082C554.114 522.583 554.519 524.382 554.519 526.479V550.273H545.241V545.381H544.965C544.399 546.483 543.641 547.455 542.692 548.298C541.742 549.124 540.602 549.775 539.27 550.25C537.938 550.709 536.399 550.939 534.653 550.939ZM537.455 544.187C538.895 544.187 540.165 543.903 541.268 543.337C542.37 542.755 543.235 541.974 543.863 540.994C544.491 540.014 544.805 538.904 544.805 537.664V533.921C544.498 534.12 544.077 534.303 543.541 534.472C543.021 534.625 542.431 534.77 541.773 534.908C541.115 535.031 540.456 535.145 539.798 535.253C539.14 535.344 538.542 535.429 538.007 535.505C536.858 535.674 535.855 535.942 534.998 536.309C534.141 536.677 533.474 537.174 533 537.802C532.525 538.414 532.288 539.18 532.288 540.099C532.288 541.431 532.77 542.449 533.735 543.153C534.715 543.842 535.955 544.187 537.455 544.187ZM580.874 514.996V522.345H559.63V514.996H580.874ZM564.453 506.544H574.236V539.433C574.236 540.336 574.374 541.04 574.65 541.545C574.925 542.035 575.308 542.38 575.798 542.579C576.303 542.778 576.885 542.877 577.543 542.877C578.003 542.877 578.462 542.839 578.921 542.763C579.381 542.671 579.733 542.602 579.978 542.556L581.517 549.836C581.027 549.989 580.338 550.166 579.45 550.365C578.562 550.579 577.482 550.709 576.211 550.755C573.853 550.847 571.786 550.533 570.01 549.813C568.25 549.094 566.879 547.976 565.899 546.46C564.919 544.944 564.437 543.031 564.453 540.719V506.544ZM602.944 550.962C599.316 550.962 596.192 550.227 593.574 548.757C590.971 547.272 588.965 545.174 587.557 542.464C586.148 539.739 585.444 536.516 585.444 532.795C585.444 529.166 586.148 525.982 587.557 523.241C588.965 520.5 590.948 518.365 593.505 516.833C596.077 515.302 599.094 514.537 602.554 514.537C604.881 514.537 607.048 514.912 609.054 515.662C611.075 516.397 612.835 517.507 614.336 518.992C615.852 520.477 617.031 522.345 617.873 524.596C618.715 526.832 619.136 529.45 619.136 532.451V535.138H589.348V529.075H609.926C609.926 527.666 609.62 526.418 609.008 525.331C608.395 524.244 607.545 523.394 606.458 522.782C605.387 522.154 604.139 521.84 602.715 521.84C601.23 521.84 599.913 522.185 598.765 522.874C597.631 523.547 596.743 524.458 596.1 525.607C595.457 526.74 595.128 528.003 595.113 529.396V535.161C595.113 536.906 595.434 538.414 596.077 539.685C596.736 540.956 597.662 541.936 598.856 542.625C600.051 543.314 601.467 543.658 603.105 543.658C604.192 543.658 605.187 543.505 606.091 543.199C606.994 542.893 607.767 542.433 608.41 541.821C609.054 541.209 609.543 540.458 609.88 539.57L618.929 540.167C618.47 542.342 617.528 544.24 616.104 545.863C614.696 547.471 612.874 548.726 610.638 549.63C608.418 550.518 605.854 550.962 602.944 550.962ZM625.521 550.273V514.996H635.006V521.151H635.373C636.016 518.962 637.096 517.308 638.611 516.19C640.127 515.057 641.873 514.491 643.848 514.491C644.338 514.491 644.866 514.521 645.432 514.583C645.999 514.644 646.497 514.728 646.925 514.835V523.517C646.466 523.379 645.831 523.256 645.019 523.149C644.208 523.042 643.465 522.988 642.791 522.988C641.352 522.988 640.066 523.302 638.933 523.93C637.815 524.543 636.927 525.4 636.269 526.502C635.626 527.605 635.304 528.876 635.304 530.315V550.273H625.521ZM652.167 550.273V503.237H661.951V520.921H662.25C662.678 519.972 663.299 519.008 664.11 518.028C664.937 517.032 666.009 516.206 667.325 515.547C668.657 514.874 670.311 514.537 672.286 514.537C674.858 514.537 677.232 515.21 679.406 516.558C681.58 517.89 683.318 519.903 684.619 522.598C685.921 525.277 686.571 528.638 686.571 532.68C686.571 536.615 685.936 539.938 684.665 542.648C683.41 545.343 681.695 547.387 679.521 548.78C677.362 550.158 674.943 550.847 672.263 550.847C670.365 550.847 668.749 550.533 667.417 549.905C666.1 549.277 665.021 548.489 664.179 547.54C663.337 546.575 662.694 545.603 662.25 544.623H661.813V550.273H652.167ZM661.744 532.634C661.744 534.732 662.035 536.562 662.617 538.123C663.199 539.685 664.041 540.902 665.144 541.775C666.246 542.633 667.586 543.061 669.163 543.061C670.755 543.061 672.102 542.625 673.205 541.752C674.307 540.864 675.142 539.639 675.708 538.077C676.29 536.5 676.581 534.686 676.581 532.634C676.581 530.598 676.298 528.807 675.731 527.26C675.165 525.714 674.33 524.504 673.228 523.632C672.125 522.759 670.77 522.322 669.163 522.322C667.57 522.322 666.223 522.743 665.121 523.586C664.033 524.428 663.199 525.622 662.617 527.168C662.035 528.715 661.744 530.537 661.744 532.634ZM698.003 563.501C696.763 563.501 695.599 563.402 694.512 563.203C693.44 563.019 692.552 562.782 691.848 562.491L694.053 555.188C695.201 555.54 696.234 555.731 697.153 555.762C698.087 555.792 698.891 555.578 699.565 555.119C700.254 554.659 700.812 553.878 701.241 552.776L701.815 551.283L689.161 514.996H699.45L706.753 540.902H707.121L714.493 514.996H724.851L711.14 554.085C710.481 555.984 709.586 557.637 708.453 559.046C707.335 560.47 705.919 561.565 704.204 562.33C702.489 563.111 700.422 563.501 698.003 563.501ZM748.621 514.996V522.345H727.377V514.996H748.621ZM732.2 506.544H741.984V539.433C741.984 540.336 742.122 541.04 742.397 541.545C742.673 542.035 743.056 542.38 743.545 542.579C744.051 542.778 744.633 542.877 745.291 542.877C745.75 542.877 746.21 542.839 746.669 542.763C747.128 542.671 747.48 542.602 747.725 542.556L749.264 549.836C748.774 549.989 748.085 550.166 747.197 550.365C746.309 550.579 745.23 550.709 743.959 550.755C741.601 550.847 739.534 550.533 737.758 549.813C735.997 549.094 734.627 547.976 733.647 546.46C732.667 544.944 732.185 543.031 732.2 540.719V506.544ZM770.692 550.962C767.063 550.962 763.94 550.227 761.322 548.757C758.719 547.272 756.713 545.174 755.304 542.464C753.896 539.739 753.191 536.516 753.191 532.795C753.191 529.166 753.896 525.982 755.304 523.241C756.713 520.5 758.696 518.365 761.253 516.833C763.825 515.302 766.841 514.537 770.301 514.537C772.629 514.537 774.795 514.912 776.801 515.662C778.822 516.397 780.583 517.507 782.083 518.992C783.599 520.477 784.778 522.345 785.62 524.596C786.462 526.832 786.883 529.45 786.883 532.451V535.138H757.096V529.075H777.674C777.674 527.666 777.368 526.418 776.755 525.331C776.143 524.244 775.293 523.394 774.206 522.782C773.134 522.154 771.886 521.84 770.462 521.84C768.977 521.84 767.66 522.185 766.512 522.874C765.379 523.547 764.491 524.458 763.848 525.607C763.205 526.74 762.876 528.003 762.86 529.396V535.161C762.86 536.906 763.182 538.414 763.825 539.685C764.483 540.956 765.41 541.936 766.604 542.625C767.798 543.314 769.214 543.658 770.853 543.658C771.94 543.658 772.935 543.505 773.838 543.199C774.742 542.893 775.515 542.433 776.158 541.821C776.801 541.209 777.291 540.458 777.628 539.57L786.677 540.167C786.217 542.342 785.276 544.24 783.852 545.863C782.443 547.471 780.621 548.726 778.386 549.63C776.166 550.518 773.601 550.962 770.692 550.962Z" fill="black"/>
<path d="M463.595 456.445V409.41H495.289V417.609H473.54V428.817H493.658V437.016H473.54V448.246H495.381V456.445H463.595ZM512.795 436.051V456.445H503.012V421.169H512.336V427.393H512.749C513.53 425.341 514.839 423.718 516.677 422.524C518.514 421.314 520.742 420.71 523.36 420.71C525.81 420.71 527.946 421.245 529.768 422.317C531.59 423.389 533.006 424.92 534.016 426.91C535.027 428.886 535.532 431.243 535.532 433.984V456.445H525.748V435.73C525.764 433.571 525.213 431.887 524.095 430.677C522.977 429.452 521.438 428.84 519.479 428.84C518.162 428.84 516.998 429.123 515.988 429.689C514.992 430.256 514.212 431.083 513.645 432.17C513.094 433.242 512.811 434.535 512.795 436.051ZM559.136 470.409C555.967 470.409 553.249 469.973 550.983 469.1C548.732 468.243 546.941 467.071 545.609 465.586C544.277 464.101 543.412 462.432 543.013 460.579L552.062 459.362C552.338 460.066 552.774 460.725 553.371 461.337C553.969 461.95 554.757 462.44 555.737 462.807C556.732 463.19 557.942 463.381 559.366 463.381C561.494 463.381 563.247 462.861 564.625 461.82C566.018 460.794 566.715 459.071 566.715 456.652V450.199H566.302C565.873 451.178 565.23 452.105 564.372 452.977C563.515 453.85 562.413 454.562 561.065 455.113C559.718 455.665 558.11 455.94 556.242 455.94C553.593 455.94 551.182 455.328 549.008 454.103C546.849 452.863 545.126 450.972 543.84 448.43C542.569 445.873 541.934 442.643 541.934 438.738C541.934 434.742 542.585 431.404 543.886 428.725C545.188 426.045 546.918 424.04 549.077 422.708C551.251 421.376 553.632 420.71 556.219 420.71C558.194 420.71 559.848 421.046 561.18 421.72C562.512 422.378 563.584 423.205 564.395 424.2C565.222 425.18 565.858 426.145 566.302 427.094H566.669V421.169H576.384V456.79C576.384 459.791 575.649 462.302 574.179 464.323C572.709 466.344 570.673 467.86 568.07 468.87C565.482 469.896 562.504 470.409 559.136 470.409ZM559.343 448.591C560.92 448.591 562.252 448.2 563.339 447.42C564.441 446.623 565.283 445.49 565.865 444.021C566.462 442.535 566.761 440.759 566.761 438.692C566.761 436.625 566.47 434.834 565.888 433.318C565.306 431.787 564.464 430.6 563.362 429.758C562.259 428.916 560.92 428.495 559.343 428.495C557.735 428.495 556.38 428.932 555.278 429.804C554.175 430.662 553.341 431.856 552.774 433.387C552.208 434.918 551.925 436.687 551.925 438.692C551.925 440.729 552.208 442.489 552.774 443.975C553.356 445.444 554.191 446.585 555.278 447.397C556.38 448.193 557.735 448.591 559.343 448.591ZM600.246 457.134C596.617 457.134 593.494 456.4 590.876 454.93C588.273 453.444 586.267 451.347 584.859 448.637C583.45 445.911 582.746 442.688 582.746 438.968C582.746 435.339 583.45 432.155 584.859 429.414C586.267 426.673 588.25 424.537 590.807 423.006C593.379 421.475 596.395 420.71 599.856 420.71C602.183 420.71 604.349 421.085 606.355 421.835C608.376 422.57 610.137 423.68 611.637 425.165C613.153 426.65 614.332 428.518 615.174 430.769C616.016 433.004 616.437 435.622 616.437 438.623V441.31H586.65V435.247H607.228C607.228 433.839 606.922 432.591 606.309 431.504C605.697 430.417 604.847 429.567 603.76 428.955C602.688 428.327 601.44 428.013 600.016 428.013C598.531 428.013 597.214 428.357 596.066 429.046C594.933 429.72 594.045 430.631 593.402 431.779C592.759 432.912 592.43 434.176 592.414 435.569V441.333C592.414 443.079 592.736 444.587 593.379 445.858C594.037 447.129 594.964 448.109 596.158 448.798C597.352 449.487 598.769 449.831 600.407 449.831C601.494 449.831 602.489 449.678 603.392 449.372C604.296 449.066 605.069 448.606 605.712 447.994C606.355 447.381 606.845 446.631 607.182 445.743L616.231 446.34C615.771 448.514 614.83 450.413 613.406 452.036C611.997 453.644 610.175 454.899 607.94 455.802C605.72 456.69 603.155 457.134 600.246 457.134ZM632.606 409.41V456.445H622.822V409.41H632.606ZM640.627 456.445V409.41H650.411V427.094H650.709C651.138 426.145 651.758 425.18 652.57 424.2C653.396 423.205 654.468 422.378 655.785 421.72C657.117 421.046 658.771 420.71 660.746 420.71C663.318 420.71 665.691 421.383 667.865 422.731C670.039 424.063 671.777 426.076 673.079 428.771C674.38 431.45 675.031 434.811 675.031 438.853C675.031 442.788 674.395 446.11 673.125 448.821C671.869 451.515 670.154 453.559 667.98 454.953C665.821 456.331 663.402 457.02 660.723 457.02C658.824 457.02 657.209 456.706 655.877 456.078C654.56 455.45 653.481 454.662 652.638 453.712C651.796 452.748 651.153 451.776 650.709 450.796H650.273V456.445H640.627ZM650.204 438.807C650.204 440.905 650.495 442.734 651.077 444.296C651.659 445.858 652.501 447.075 653.603 447.948C654.705 448.805 656.045 449.234 657.622 449.234C659.215 449.234 660.562 448.798 661.664 447.925C662.767 447.037 663.601 445.812 664.168 444.25C664.749 442.673 665.04 440.859 665.04 438.807C665.04 436.771 664.757 434.979 664.191 433.433C663.624 431.887 662.79 430.677 661.687 429.804C660.585 428.932 659.23 428.495 657.622 428.495C656.03 428.495 654.682 428.916 653.58 429.758C652.493 430.6 651.659 431.795 651.077 433.341C650.495 434.888 650.204 436.71 650.204 438.807ZM686.462 469.674C685.222 469.674 684.059 469.575 682.972 469.376C681.9 469.192 681.012 468.955 680.307 468.664L682.512 461.36C683.661 461.712 684.694 461.904 685.613 461.934C686.547 461.965 687.35 461.751 688.024 461.291C688.713 460.832 689.272 460.051 689.701 458.949L690.275 457.456L677.62 421.169H687.909L695.213 447.075H695.58L702.952 421.169H713.31L699.599 460.258C698.941 462.156 698.045 463.81 696.912 465.219C695.794 466.643 694.378 467.737 692.663 468.503C690.949 469.284 688.882 469.674 686.462 469.674ZM737.081 421.169V428.518H715.837V421.169H737.081ZM720.66 412.717H730.443V445.605C730.443 446.509 730.581 447.213 730.857 447.718C731.132 448.208 731.515 448.553 732.005 448.752C732.51 448.951 733.092 449.05 733.75 449.05C734.21 449.05 734.669 449.012 735.128 448.935C735.588 448.844 735.94 448.775 736.185 448.729L737.724 456.009C737.234 456.162 736.545 456.338 735.657 456.537C734.769 456.752 733.689 456.882 732.418 456.928C730.061 457.02 727.994 456.706 726.217 455.986C724.457 455.266 723.086 454.149 722.106 452.633C721.127 451.117 720.644 449.203 720.66 446.891V412.717ZM759.151 457.134C755.523 457.134 752.399 456.4 749.781 454.93C747.178 453.444 745.173 451.347 743.764 448.637C742.355 445.911 741.651 442.688 741.651 438.968C741.651 435.339 742.355 432.155 743.764 429.414C745.173 426.673 747.155 424.537 749.712 423.006C752.284 421.475 755.301 420.71 758.761 420.71C761.088 420.71 763.255 421.085 765.261 421.835C767.282 422.57 769.042 423.68 770.543 425.165C772.059 426.65 773.238 428.518 774.08 430.769C774.922 433.004 775.343 435.622 775.343 438.623V441.31H745.555V435.247H766.133C766.133 433.839 765.827 432.591 765.215 431.504C764.602 430.417 763.752 429.567 762.665 428.955C761.594 428.327 760.346 428.013 758.922 428.013C757.437 428.013 756.12 428.357 754.972 429.046C753.839 429.72 752.951 430.631 752.307 431.779C751.664 432.912 751.335 434.176 751.32 435.569V441.333C751.32 443.079 751.641 444.587 752.284 445.858C752.943 447.129 753.869 448.109 755.063 448.798C756.258 449.487 757.674 449.831 759.312 449.831C760.399 449.831 761.395 449.678 762.298 449.372C763.201 449.066 763.974 448.606 764.618 447.994C765.261 447.381 765.751 446.631 766.087 445.743L775.136 446.34C774.677 448.514 773.735 450.413 772.311 452.036C770.903 453.644 769.081 454.899 766.845 455.802C764.625 456.69 762.061 457.134 759.151 457.134ZM789.927 409.41V414.371C789.927 415.779 789.651 417.219 789.1 418.688C788.564 420.143 787.844 421.521 786.941 422.822C786.038 424.109 785.05 425.203 783.978 426.107L779.661 423.557C780.426 422.348 781.1 421.008 781.682 419.538C782.279 418.068 782.577 416.361 782.577 414.417V409.41H789.927ZM821.374 431.228L812.417 431.779C812.263 431.014 811.934 430.325 811.429 429.712C810.924 429.085 810.258 428.587 809.431 428.22C808.619 427.837 807.647 427.645 806.514 427.645C804.998 427.645 803.72 427.967 802.679 428.61C801.638 429.238 801.117 430.08 801.117 431.136C801.117 431.978 801.454 432.69 802.128 433.272C802.801 433.854 803.957 434.321 805.596 434.673L811.98 435.959C815.41 436.664 817.967 437.797 819.651 439.358C821.335 440.92 822.177 442.972 822.177 445.513C822.177 447.825 821.496 449.854 820.133 451.599C818.786 453.345 816.933 454.708 814.575 455.688C812.233 456.652 809.53 457.134 806.468 457.134C801.798 457.134 798.078 456.162 795.307 454.218C792.551 452.258 790.935 449.594 790.461 446.225L800.084 445.72C800.374 447.144 801.079 448.231 802.196 448.981C803.314 449.716 804.746 450.084 806.491 450.084C808.206 450.084 809.584 449.755 810.625 449.096C811.682 448.422 812.218 447.557 812.233 446.501C812.218 445.613 811.842 444.886 811.108 444.319C810.373 443.737 809.24 443.293 807.708 442.987L801.599 441.77C798.154 441.081 795.59 439.887 793.906 438.187C792.237 436.488 791.402 434.321 791.402 431.688C791.402 429.421 792.015 427.469 793.24 425.831C794.48 424.193 796.218 422.93 798.453 422.042C800.704 421.154 803.337 420.71 806.353 420.71C810.809 420.71 814.315 421.651 816.872 423.534C819.444 425.418 820.945 427.982 821.374 431.228Z" fill="#5E5E5E"/>
</svg>
